<svg width="75" height="75" viewBox="0 0 75 75" fill="none" xmlns="http://www.w3.org/2000/svg">
<path d="M75 37.5C75 58.2107 58.2107 75 37.5 75C16.7893 75 0 58.2107 0 37.5C0 16.7893 16.7893 0 37.5 0C58.2107 0 75 16.7893 75 37.5Z" fill="black" fill-opacity="0.08"/>
<path d="M44.5 38C44.5 41.866 41.366 45 37.5 45C33.634 45 30.5 41.866 30.5 38C30.5 34.134 33.634 31 37.5 31C41.366 31 44.5 34.134 44.5 38Z" fill="#00838F"/>
<path fill-rule="evenodd" clip-rule="evenodd" d="M31.2547 30.676C33.0679 28.8628 35.4786 27.8535 38.0429 27.8535C40.6071 27.8535 43.0178 28.8681 44.831 30.6813C45.9815 31.8318 46.8034 33.2143 47.2509 34.7571H54.4571V25.0714C54.4571 22.7991 52.7009 21.0429 50.4286 21.0429H25.7429C23.4706 21.0429 21.5429 22.7991 21.5429 25.0714V34.7571H28.8347C29.2823 33.2143 30.1043 31.8265 31.2547 30.676ZM51.7143 28.1743C51.7143 28.7802 51.2231 29.2714 50.6171 29.2714H47.3257C46.7198 29.2714 46.2286 28.7803 46.2286 28.1743V24.8829C46.2286 24.2769 46.7197 23.7857 47.3257 23.7857H50.6171C51.2231 23.7857 51.7143 24.2769 51.7143 24.8829V28.1743Z" fill="#00838F"/>
<path fill-rule="evenodd" clip-rule="evenodd" d="M44.831 44.2525C43.0178 46.0657 40.6071 47.0535 38.0429 47.0535C35.4786 47.0535 33.0679 46.0711 31.2547 44.2579C29.4449 42.448 28.4468 39.9857 28.443 37.5H21.5429V49.7571C21.5429 52.0294 23.4706 53.9571 25.7429 53.9571H50.4286C52.7009 53.9571 54.4571 52.0294 54.4571 49.7571V37.5H47.6427C47.639 39.9857 46.6409 42.4426 44.831 44.2525Z" fill="#00838F"/>
</svg>
