<svg width="75" height="75" viewBox="0 0 75 75" fill="none" xmlns="http://www.w3.org/2000/svg">
<path d="M75 37.5C75 58.2107 58.2107 75 37.5 75C16.7893 75 0 58.2107 0 37.5C0 16.7893 16.7893 0 37.5 0C58.2107 0 75 16.7893 75 37.5Z" fill="black" fill-opacity="0.08"/>
<path fill-rule="evenodd" clip-rule="evenodd" d="M53.1211 20H23.0758C21.4347 20 20 21.1816 20 22.8039V52.9148C20 54.5465 21.4347 56 23.0758 56H53.1117C54.7621 56 55.9999 54.5371 55.9999 52.9148V22.8039C56.0093 21.1816 54.7621 20 53.1211 20ZM31.1591 50.0078H26.0016V33.9724H31.1591V50.0078ZM28.7585 31.5343H28.721C27.0706 31.5343 26.0016 30.3058 26.0016 28.7679C26.0016 27.2019 27.0987 26.0016 28.7866 26.0016C30.4746 26.0016 31.5061 27.1925 31.5436 28.7679C31.5436 30.3058 30.4746 31.5343 28.7585 31.5343ZM50.0078 50.0078H44.8502V41.2399C44.8502 39.1394 44.1 37.7046 42.2339 37.7046C40.8085 37.7046 39.9645 38.6705 39.5894 39.6082C39.4488 39.9458 39.4113 40.4053 39.4113 40.8742V50.0078H34.2537V33.9724H39.4113V36.2042C40.1615 35.1352 41.3336 33.5973 44.0625 33.5973C47.4477 33.5973 50.0078 35.8291 50.0078 40.6397V50.0078Z" fill="#00838F"/>
</svg>
